<svg id="Capa_1" data-name="Capa 1" xmlns="http://www.w3.org/2000/svg" viewBox="0 0 591.42 277.79"><defs><style>.cls-1{fill:#c2d5f0;}</style></defs><title>logo</title><path class="cls-1" d="M10.29,201.55c0-17.72,13.49-32.6,29.6-32.6,7.44.12,14.31,3.59,19.93,9.61l-5.23,7.77c-4-4.42-9.25-7.35-14.87-7.35-10.39,0-20.32,10-20.32,22.61s10.07,22.49,20.35,22.49c5.87,0,10.93-3.2,14.88-7.5l5.19,8C54.87,229.9,48.57,234,40,234,23.78,234,10.29,219.31,10.29,201.55Z" transform="translate(-10.29 -39.29)"/><path class="cls-1" d="M61.77,201.59c0-18,13.31-32.64,29.64-32.64s29.67,14.68,29.67,32.64c0,17.8-13.37,32.4-29.7,32.4S61.77,219.39,61.77,201.59Zm50.21-.08c0-12.45-9.29-22.6-20.6-22.6s-20.53,10.15-20.53,22.6S80.06,224,91.38,224,112,213.89,112,201.51Z" transform="translate(-10.29 -39.29)"/><path class="cls-1" d="M175.45,169.89v64.18H175l-36.68-42v41h-9V169h.46l36.61,42v-41Z" transform="translate(-10.29 -39.29)"/><path class="cls-1" d="M183.17,221.93l7.11-5.58a14.13,14.13,0,0,0,12.85,7.73c6.44,0,11.31-3.4,11.31-8.2,0-5.82-7.54-9.33-14.23-12.49s-14.2-7.11-14.2-17c0-10.3,8.15-17.49,18.47-17.49,8.18,0,14.3,4.34,16.65,11.25l-6.69,5.07a10.64,10.64,0,0,0-9.89-6.63c-5.27,0-9.47,3.59-9.47,8,0,4.92,5.31,6.67,12.28,10,9.07,4.38,16.12,9.18,16.12,19.09,0,11.17-8.83,18.35-20.46,18.35C193.59,234,186.44,229.19,183.17,221.93Z" transform="translate(-10.29 -39.29)"/><path class="cls-1" d="M267.13,179.84H251.76V233h-9V179.84H227.35v-9.79h39.78Z" transform="translate(-10.29 -39.29)"/><path class="cls-1" d="M305.8,233l-15.44-24.36h-7V233h-9l0-62.93h17.83c10.67,0,19.42,9,19.42,20.22,0,8.12-4.76,15.19-11.35,17.53L316.87,233Zm-13.48-32.56c5.41,0,9.93-4.77,9.93-10.38a10,10,0,0,0-9.93-10.2h-9v20.58Z" transform="translate(-10.29 -39.29)"/><path class="cls-1" d="M319.89,209.13V170.05h9v39c0,8.7,5.59,15.07,12.6,15.07s12.66-6.37,12.66-15.07v-39h9.08v39.08c0,14.44-9.5,25-21.71,25S319.89,223.57,319.89,209.13Z" transform="translate(-10.29 -39.29)"/><path class="cls-1" d="M371,201.55c0-17.72,13.49-32.6,29.6-32.6,7.44.12,14.31,3.59,19.93,9.61l-5.23,7.77c-4-4.42-9.25-7.35-14.87-7.35-10.39,0-20.32,10-20.32,22.61s10.07,22.49,20.35,22.49c5.87,0,10.92-3.2,14.87-7.5l5.2,8c-4.95,5.35-11.25,9.44-19.78,9.44C384.47,234,371,219.31,371,201.55Z" transform="translate(-10.29 -39.29)"/><path class="cls-1" d="M463.59,179.84H448.22V233h-9V179.84H423.82v-9.79h39.77Z" transform="translate(-10.29 -39.29)"/><path class="cls-1" d="M470.74,170.05h9V233h-9Z" transform="translate(-10.29 -39.29)"/><path class="cls-1" d="M488,201.59c0-18,13.31-32.64,29.64-32.64s29.67,14.68,29.67,32.64c0,17.8-13.37,32.4-29.7,32.4S488,219.39,488,201.59Zm50.21-.08c0-12.45-9.29-22.6-20.6-22.6s-20.53,10.15-20.53,22.6S506.32,224,517.64,224,538.24,213.89,538.24,201.51Z" transform="translate(-10.29 -39.29)"/><path class="cls-1" d="M601.71,169.89v64.18h-.43L564.6,192v41h-9V169h.46l36.61,42v-41Z" transform="translate(-10.29 -39.29)"/><path class="cls-1" d="M62,315.83c-3.95,0-9.18-2.58-14.66-6.6a21.27,21.27,0,0,1-16.26,7.26c-13,0-19.6-10.34-19.6-19.64a22.78,22.78,0,0,1,9.68-18.15c-2.17-4.41-3.49-8.55-3.49-12.07,0-7.8,6.58-15.85,15.16-15.85,7.75,0,13.87,6.6,14.94,14.14L39,266.71c-.42-3.82-3.27-6.79-6.51-6.79s-6,3.08-6,7.07c0,7.3,8.89,19.95,18.25,29a36.38,36.38,0,0,0,2.38-12.15l8.47-.11A46.29,46.29,0,0,1,51.9,302c3.92,2.89,7.48,4.64,10.11,4.64ZM40.09,303.14A99.94,99.94,0,0,1,25.4,286,12.84,12.84,0,0,0,20,296.23c0,6,3.66,10.58,10.6,10.58A13.56,13.56,0,0,0,40.09,303.14Z" transform="translate(-10.29 -39.29)"/><path class="cls-1" d="M122,315.28l-15.44-24.36h-7v24.36h-9l0-62.93h17.83c10.67,0,19.43,9,19.43,20.22,0,8.12-4.77,15.19-11.35,17.53l16.68,25.18Zm-13.49-32.56c5.41,0,9.93-4.76,9.93-10.38a10,10,0,0,0-9.93-10.2h-9v20.58Z" transform="translate(-10.29 -39.29)"/><path class="cls-1" d="M148.14,262.07v16.12h21.7V288h-21.7v17.41h25.15v9.84H139.14V252.35h34.15v9.72Z" transform="translate(-10.29 -39.29)"/><path class="cls-1" d="M238.83,251v64.3h-9v-34.9l-19,33.85h-.07l-19.07-33.89v34.94h-9V251h.68l27.43,45.76L238.16,251Z" transform="translate(-10.29 -39.29)"/><path class="cls-1" d="M247.12,283.89c0-18,13.3-32.64,29.64-32.64s29.67,14.68,29.67,32.64-13.38,32.41-29.71,32.41S247.12,301.7,247.12,283.89Zm50.2-.08c0-12.45-9.29-22.6-20.6-22.6s-20.53,10.15-20.53,22.6,9.22,22.49,20.53,22.49S297.32,296.19,297.32,283.81Z" transform="translate(-10.29 -39.29)"/><path class="cls-1" d="M360.58,283.89c0,19.33-11.35,31.39-29.57,31.39H314.68V252.35H331C349.23,252.31,360.58,264.41,360.58,283.89Zm-9.11,0c0-13.35-7.9-21.71-20.49-21.71h-7.33v43.3h7.43C343.61,305.44,351.47,297.13,351.47,283.85Z" transform="translate(-10.29 -39.29)"/><path class="cls-1" d="M377.83,262.07v16.12h21.7V288h-21.7v17.41H403v9.84H368.83V252.35H403v9.72Z" transform="translate(-10.29 -39.29)"/><path class="cls-1" d="M446.93,305.44v9.84H412.34V252.35h9v53.09Z" transform="translate(-10.29 -39.29)"/><path class="cls-1" d="M454.11,252.35h9v62.93h-9Z" transform="translate(-10.29 -39.29)"/><path class="cls-1" d="M520.25,252.19v64.18h-.42l-36.69-42v41h-9V251.25h.46l36.62,42v-41Z" transform="translate(-10.29 -39.29)"/><path class="cls-1" d="M585.75,285.84c0,18.71-12.38,30.5-27.29,30.5-16.68,0-29.92-14.61-29.92-32.45s13.31-32.6,29.6-32.6c7.22,0,15.48,3.87,20.89,9.65l-5,8.19c-4.48-4.84-10.53-7.88-16-7.88-10.45,0-20.34,9.6-20.34,22.64,0,12.34,8.93,22.49,21.16,22.49,9.86,0,17.26-6.6,17.26-16.2V290H558.36v-9.05H585.5C585.64,282.37,585.75,284.09,585.75,285.84Z" transform="translate(-10.29 -39.29)"/><path class="cls-1" d="M588.46,310.48c0-3.63,2.73-6.64,6-6.64s6,3.05,6,6.64a6.37,6.37,0,0,1-6,6.6C591.19,317.08,588.46,314.11,588.46,310.48Z" transform="translate(-10.29 -39.29)"/><path d="M10.29,90.85c0-27.87,22.78-51.26,50-51.26,12.56.19,24.15,5.65,33.65,15.11L85.1,66.91C78.31,60,69.48,55.37,60,55.37c-17.55,0-34.31,15.71-34.31,35.54s17,35.35,34.37,35.35c9.91,0,18.44-5,25.11-11.78L93.94,127c-8.36,8.41-19,14.85-33.41,14.85C33.07,141.85,10.29,118.77,10.29,90.85Z" transform="translate(-10.29 -39.29)"/><path d="M159.24,140.26,133.16,102h-11.9v38.3h-15.2L106,41.31h30.1c18,0,32.81,14.18,32.81,31.8,0,12.77-8,23.87-19.17,27.56l28.18,39.59ZM136.46,89.07c9.14.06,16.77-7.49,16.77-16.33,0-9.21-7.75-16-16.77-16H121.2V89.07Z" transform="translate(-10.29 -39.29)"/><path d="M203.32,56.6V82H240V97.41H203.32v27.38h42.49v15.47H188.12V41.31h57.69V56.6Z" transform="translate(-10.29 -39.29)"/><path d="M322.59,125.22H276.74l-6.61,15H253.67l45.54-101h.9l45.55,101H329.2ZM316.7,111.9l-17-38.67L282.63,111.9Z" transform="translate(-10.29 -39.29)"/><path d="M405.07,56.72H379.12v83.54H363.85V56.72h-26V41.31h67.18Z" transform="translate(-10.29 -39.29)"/><path d="M417.14,41.31h15.2v98.95h-15.2Z" transform="translate(-10.29 -39.29)"/><path d="M533.28,41.31l-44.7,101h-1L443,41.31h16.16l28.85,67,29-67Z" transform="translate(-10.29 -39.29)"/><path d="M559.23,56.6V82h36.65V97.41H559.23v27.38h42.48v15.47H544V41.31h57.69V56.6Z" transform="translate(-10.29 -39.29)"/></svg>